<?xml version="1.0" encoding="utf-8"?>
<!-- Generator: Adobe Illustrator 19.2.1, SVG Export Plug-In . SVG Version: 6.00 Build 0)  -->
<svg version="1.1" id="Layer_1" xmlns="http://www.w3.org/2000/svg" xmlns:xlink="http://www.w3.org/1999/xlink" x="0px" y="0px"
	 viewBox="0 0 960 560" style="enable-background:new 0 0 960 560;" xml:space="preserve">
<style type="text/css">
	.st0{fill:#9B9191;}
	.st1{fill:#B5A9A9;}
	.st2{fill:#CCC3C3;}
	.st3{fill:#EAEAEA;}
	.st4{fill:#343838;}
	.st5{fill:#8C8585;}
	.st6{fill:none;stroke:#EAEAEA;stroke-width:5.6715;stroke-linecap:round;stroke-miterlimit:10;}
	.st7{fill:#CCC3C3;stroke:#343838;stroke-width:6.4927;stroke-miterlimit:10;}
	.st8{fill:none;stroke:#EAEAEA;stroke-width:3.2463;stroke-linecap:round;stroke-miterlimit:10;}
</style>
<rect x="188.7" y="161.6" transform="matrix(0.981 -0.1942 0.1942 0.981 -31.8328 42.5216)" class="st0" width="24.5" height="44.1"/>
<rect x="106.1" y="190" transform="matrix(0.981 -0.1942 0.1942 0.981 -36.1586 27.7878)" class="st1" width="35.1" height="16.6"/>
<rect x="206.3" y="139.7" transform="matrix(0.981 -0.1942 0.1942 0.981 -27.856 46.8811)" class="st1" width="37.7" height="51.6"/>
<rect x="67" y="66.1" transform="matrix(0.981 -0.1942 0.1942 0.981 -21.8163 32.4942)" class="st2" width="175.7" height="122.9"/>
<rect x="79.1" y="74.3" transform="matrix(0.981 -0.1942 0.1942 0.981 -24.2293 24.4681)" class="st1" width="67.1" height="123"/>
<rect x="107" y="154.4" transform="matrix(0.981 -0.1942 0.1942 0.981 -28.6658 37.8543)" class="st1" width="143.4" height="21.4"/>
<g>
	
		<ellipse transform="matrix(0.9819 -0.1894 0.1894 0.9819 -78.2405 48.4364)" class="st2" cx="214.3" cy="433.6" rx="14.4" ry="1.8"/>
	
		<rect x="175.6" y="185.6" transform="matrix(0.981 -0.1942 0.1942 0.981 -56.7383 42.8159)" class="st2" width="28.9" height="250.3"/>
	<rect x="178.4" y="189" transform="matrix(0.981 -0.1942 0.1942 0.981 -57.373 41.3108)" class="st1" width="7.2" height="248.6"/>
	<rect x="195.7" y="186.5" transform="matrix(0.981 -0.1942 0.1942 0.981 -56.5708 44.114)" class="st3" width="2" height="248.1"/>
</g>
<path class="st4" d="M197.1,257.9l-34.3,6.8c-0.6,0.1-1.2-0.3-1.3-0.9l-1-5c-0.1-0.6,0.3-1.2,0.9-1.3l34.3-6.8
	c0.6-0.1,1.2,0.3,1.3,0.9l1,5C198.1,257.2,197.7,257.8,197.1,257.9z"/>
<path class="st4" d="M184,191.9l-34.3,6.8c-0.6,0.1-1.2-0.3-1.3-0.9l-1-5c-0.1-0.6,0.3-1.2,0.9-1.3l34.3-6.8
	c0.6-0.1,1.2,0.3,1.3,0.9l1,5C185,191.2,184.6,191.8,184,191.9z"/>
<rect x="153.4" y="195.1" transform="matrix(0.981 -0.1942 0.1942 0.981 -35.4155 36.4057)" class="st5" width="29.1" height="7.4"/>
<rect x="15.9" y="141.2" transform="matrix(-0.1942 -0.981 0.981 -0.1942 -47.7645 246.5669)" class="st5" width="123" height="3.4"/>
<rect x="165.9" y="261.2" transform="matrix(0.981 -0.1942 0.1942 0.981 -47.4759 40.0201)" class="st5" width="28.9" height="1.8"/>
<rect x="106" y="196.5" transform="matrix(0.981 -0.1942 0.1942 0.981 -36.093 27.768)" class="st5" width="35.1" height="3"/>
<rect x="168.5" y="273.5" transform="matrix(0.981 -0.1942 0.1942 0.981 -49.9022 40.7525)" class="st5" width="28.9" height="2.8"/>
<rect x="188.8" y="181.4" transform="matrix(0.981 -0.1942 0.1942 0.981 -32.0405 42.1947)" class="st5" width="20.7" height="6.2"/>
<path class="st4" d="M199.8,270.1l-34.3,6.8c-0.6,0.1-1.2-0.3-1.3-0.9l-1-5c-0.1-0.6,0.3-1.2,0.9-1.3l34.3-6.8
	c0.6-0.1,1.2,0.3,1.3,0.9l1,5C200.8,269.4,200.4,270,199.8,270.1z"/>
<path class="st6" d="M193.3,70.5c0,0,21.9-7.1,27.1,17.4"/>
<ellipse transform="matrix(0.981 -0.1942 0.1942 0.981 -26.414 25.3444)" class="st5" cx="116.1" cy="147.4" rx="26.5" ry="26.5"/>
<ellipse transform="matrix(0.981 -0.1942 0.1942 0.981 -24.7291 24.8358)" class="st7" cx="114.3" cy="138.5" rx="25.1" ry="25.1"/>
<path class="st8" d="M115.5,123.4c0,0,10-3.2,12.3,7.9"/>
</svg>
